<mxfile host="app.diagrams.net" modified="2022-10-25T00:36:54.320Z" agent="5.0 (Windows)" etag="a3I27URmyUGV_dggNOLH" version="20.5.1" type="github">
  <diagram id="C5RBs43oDa-KdzZeNtuy" name="Page-1">
    <mxGraphModel dx="1422" dy="752" grid="1" gridSize="10" guides="1" tooltips="1" connect="1" arrows="1" fold="1" page="1" pageScale="1" pageWidth="827" pageHeight="1169" math="0" shadow="0">
      <root>
        <mxCell id="WIyWlLk6GJQsqaUBKTNV-0" />
        <mxCell id="WIyWlLk6GJQsqaUBKTNV-1" parent="WIyWlLk6GJQsqaUBKTNV-0" />
        <mxCell id="zkfFHV4jXpPFQw0GAbJ--0" value="Pessoa" style="swimlane;fontStyle=2;align=center;verticalAlign=top;childLayout=stackLayout;horizontal=1;startSize=26;horizontalStack=0;resizeParent=1;resizeLast=0;collapsible=1;marginBottom=0;rounded=0;shadow=0;strokeWidth=1;" parent="WIyWlLk6GJQsqaUBKTNV-1" vertex="1">
          <mxGeometry x="135.25" y="20" width="160" height="210" as="geometry">
            <mxRectangle x="230" y="140" width="160" height="26" as="alternateBounds" />
          </mxGeometry>
        </mxCell>
        <mxCell id="zkfFHV4jXpPFQw0GAbJ--1" value="- nome: String" style="text;align=left;verticalAlign=top;spacingLeft=4;spacingRight=4;overflow=hidden;rotatable=0;points=[[0,0.5],[1,0.5]];portConstraint=eastwest;" parent="zkfFHV4jXpPFQw0GAbJ--0" vertex="1">
          <mxGeometry y="26" width="160" height="26" as="geometry" />
        </mxCell>
        <mxCell id="zkfFHV4jXpPFQw0GAbJ--2" value="- numero: Integer" style="text;align=left;verticalAlign=top;spacingLeft=4;spacingRight=4;overflow=hidden;rotatable=0;points=[[0,0.5],[1,0.5]];portConstraint=eastwest;rounded=0;shadow=0;html=0;" parent="zkfFHV4jXpPFQw0GAbJ--0" vertex="1">
          <mxGeometry y="52" width="160" height="26" as="geometry" />
        </mxCell>
        <mxCell id="zkfFHV4jXpPFQw0GAbJ--3" value="- cpf: Integer" style="text;align=left;verticalAlign=top;spacingLeft=4;spacingRight=4;overflow=hidden;rotatable=0;points=[[0,0.5],[1,0.5]];portConstraint=eastwest;rounded=0;shadow=0;html=0;" parent="zkfFHV4jXpPFQw0GAbJ--0" vertex="1">
          <mxGeometry y="78" width="160" height="26" as="geometry" />
        </mxCell>
        <mxCell id="IDTEIIXvFM5C024ZQcBq-18" value="- endereco: String" style="text;html=1;align=left;verticalAlign=middle;resizable=0;points=[];autosize=1;strokeColor=none;fillColor=none;" vertex="1" parent="zkfFHV4jXpPFQw0GAbJ--0">
          <mxGeometry y="104" width="160" height="30" as="geometry" />
        </mxCell>
        <mxCell id="IDTEIIXvFM5C024ZQcBq-26" value="- dataNasc: LocalDate" style="text;html=1;align=left;verticalAlign=middle;resizable=0;points=[];autosize=1;strokeColor=none;fillColor=none;" vertex="1" parent="zkfFHV4jXpPFQw0GAbJ--0">
          <mxGeometry y="134" width="160" height="30" as="geometry" />
        </mxCell>
        <mxCell id="zkfFHV4jXpPFQw0GAbJ--4" value="" style="line;html=1;strokeWidth=1;align=left;verticalAlign=middle;spacingTop=-1;spacingLeft=3;spacingRight=3;rotatable=0;labelPosition=right;points=[];portConstraint=eastwest;" parent="zkfFHV4jXpPFQw0GAbJ--0" vertex="1">
          <mxGeometry y="164" width="160" height="46" as="geometry" />
        </mxCell>
        <mxCell id="zkfFHV4jXpPFQw0GAbJ--6" value="Enfermeiro" style="swimlane;fontStyle=0;align=center;verticalAlign=top;childLayout=stackLayout;horizontal=1;startSize=26;horizontalStack=0;resizeParent=1;resizeLast=0;collapsible=1;marginBottom=0;rounded=0;shadow=0;strokeWidth=1;" parent="WIyWlLk6GJQsqaUBKTNV-1" vertex="1">
          <mxGeometry x="135.25" y="630" width="160" height="100" as="geometry">
            <mxRectangle x="130" y="380" width="160" height="26" as="alternateBounds" />
          </mxGeometry>
        </mxCell>
        <mxCell id="zkfFHV4jXpPFQw0GAbJ--8" value="- cadastroEnf : Integer" style="text;align=left;verticalAlign=top;spacingLeft=4;spacingRight=4;overflow=hidden;rotatable=0;points=[[0,0.5],[1,0.5]];portConstraint=eastwest;rounded=0;shadow=0;html=0;" parent="zkfFHV4jXpPFQw0GAbJ--6" vertex="1">
          <mxGeometry y="26" width="160" height="26" as="geometry" />
        </mxCell>
        <mxCell id="zkfFHV4jXpPFQw0GAbJ--9" value="" style="line;html=1;strokeWidth=1;align=left;verticalAlign=middle;spacingTop=-1;spacingLeft=3;spacingRight=3;rotatable=0;labelPosition=right;points=[];portConstraint=eastwest;" parent="zkfFHV4jXpPFQw0GAbJ--6" vertex="1">
          <mxGeometry y="52" width="160" height="18" as="geometry" />
        </mxCell>
        <mxCell id="zkfFHV4jXpPFQw0GAbJ--12" value="" style="endArrow=block;endSize=10;endFill=0;shadow=0;strokeWidth=1;rounded=0;edgeStyle=elbowEdgeStyle;elbow=vertical;" parent="WIyWlLk6GJQsqaUBKTNV-1" source="zkfFHV4jXpPFQw0GAbJ--6" target="IDTEIIXvFM5C024ZQcBq-9" edge="1">
          <mxGeometry width="160" relative="1" as="geometry">
            <mxPoint x="200" y="203" as="sourcePoint" />
            <mxPoint x="420" y="320" as="targetPoint" />
          </mxGeometry>
        </mxCell>
        <mxCell id="IDTEIIXvFM5C024ZQcBq-19" style="edgeStyle=orthogonalEdgeStyle;rounded=0;orthogonalLoop=1;jettySize=auto;html=1;endArrow=block;endFill=0;" edge="1" parent="WIyWlLk6GJQsqaUBKTNV-1" source="zkfFHV4jXpPFQw0GAbJ--13" target="IDTEIIXvFM5C024ZQcBq-9">
          <mxGeometry relative="1" as="geometry" />
        </mxCell>
        <mxCell id="IDTEIIXvFM5C024ZQcBq-31" style="edgeStyle=orthogonalEdgeStyle;rounded=0;orthogonalLoop=1;jettySize=auto;html=1;endArrow=none;endFill=0;" edge="1" parent="WIyWlLk6GJQsqaUBKTNV-1" source="zkfFHV4jXpPFQw0GAbJ--13" target="IDTEIIXvFM5C024ZQcBq-27">
          <mxGeometry relative="1" as="geometry" />
        </mxCell>
        <mxCell id="zkfFHV4jXpPFQw0GAbJ--13" value="Medico" style="swimlane;fontStyle=0;align=center;verticalAlign=top;childLayout=stackLayout;horizontal=1;startSize=26;horizontalStack=0;resizeParent=1;resizeLast=0;collapsible=1;marginBottom=0;rounded=0;shadow=0;strokeWidth=1;" parent="WIyWlLk6GJQsqaUBKTNV-1" vertex="1">
          <mxGeometry x="380.5" y="355" width="339" height="220" as="geometry">
            <mxRectangle x="340" y="380" width="170" height="26" as="alternateBounds" />
          </mxGeometry>
        </mxCell>
        <mxCell id="zkfFHV4jXpPFQw0GAbJ--14" value="- crm : Integer" style="text;align=left;verticalAlign=top;spacingLeft=4;spacingRight=4;overflow=hidden;rotatable=0;points=[[0,0.5],[1,0.5]];portConstraint=eastwest;" parent="zkfFHV4jXpPFQw0GAbJ--13" vertex="1">
          <mxGeometry y="26" width="339" height="26" as="geometry" />
        </mxCell>
        <mxCell id="IDTEIIXvFM5C024ZQcBq-6" value="&lt;div&gt;- especialidade: String&lt;/div&gt;" style="text;html=1;align=left;verticalAlign=middle;resizable=0;points=[];autosize=1;strokeColor=none;fillColor=none;imageAlign=left;" vertex="1" parent="zkfFHV4jXpPFQw0GAbJ--13">
          <mxGeometry y="52" width="339" height="30" as="geometry" />
        </mxCell>
        <mxCell id="zkfFHV4jXpPFQw0GAbJ--15" value="" style="line;html=1;strokeWidth=1;align=left;verticalAlign=middle;spacingTop=-1;spacingLeft=3;spacingRight=3;rotatable=0;labelPosition=right;points=[];portConstraint=eastwest;" parent="zkfFHV4jXpPFQw0GAbJ--13" vertex="1">
          <mxGeometry y="82" width="339" height="68" as="geometry" />
        </mxCell>
        <mxCell id="IDTEIIXvFM5C024ZQcBq-1" value="&lt;div&gt;+ soExame(Integer valor, DateTime valor, Int valor): boolean&lt;/div&gt;&lt;div&gt;&lt;br&gt;&lt;/div&gt;" style="text;html=1;align=center;verticalAlign=middle;resizable=0;points=[];autosize=1;strokeColor=none;fillColor=none;" vertex="1" parent="zkfFHV4jXpPFQw0GAbJ--13">
          <mxGeometry y="150" width="339" height="40" as="geometry" />
        </mxCell>
        <mxCell id="IDTEIIXvFM5C024ZQcBq-5" value="+ liExames(Integer valor, Int valor):ArrayList()" style="text;html=1;align=center;verticalAlign=middle;resizable=0;points=[];autosize=1;strokeColor=none;fillColor=none;" vertex="1" parent="zkfFHV4jXpPFQw0GAbJ--13">
          <mxGeometry y="190" width="339" height="30" as="geometry" />
        </mxCell>
        <mxCell id="zkfFHV4jXpPFQw0GAbJ--16" value="" style="endArrow=block;endSize=10;endFill=0;shadow=0;strokeWidth=1;rounded=0;edgeStyle=elbowEdgeStyle;elbow=vertical;startArrow=none;" parent="WIyWlLk6GJQsqaUBKTNV-1" source="IDTEIIXvFM5C024ZQcBq-9" target="zkfFHV4jXpPFQw0GAbJ--0" edge="1">
          <mxGeometry width="160" relative="1" as="geometry">
            <mxPoint x="210" y="373" as="sourcePoint" />
            <mxPoint x="310" y="271" as="targetPoint" />
          </mxGeometry>
        </mxCell>
        <mxCell id="IDTEIIXvFM5C024ZQcBq-9" value="Funcionario" style="swimlane;fontStyle=2;align=center;verticalAlign=top;childLayout=stackLayout;horizontal=1;startSize=26;horizontalStack=0;resizeParent=1;resizeLast=0;collapsible=1;marginBottom=0;rounded=0;shadow=0;strokeWidth=1;" vertex="1" parent="WIyWlLk6GJQsqaUBKTNV-1">
          <mxGeometry x="125.5" y="360" width="179.5" height="210" as="geometry">
            <mxRectangle x="125.5" y="360" width="170" height="26" as="alternateBounds" />
          </mxGeometry>
        </mxCell>
        <mxCell id="IDTEIIXvFM5C024ZQcBq-10" value="- nrContrato: Integer" style="text;align=left;verticalAlign=top;spacingLeft=4;spacingRight=4;overflow=hidden;rotatable=0;points=[[0,0.5],[1,0.5]];portConstraint=eastwest;" vertex="1" parent="IDTEIIXvFM5C024ZQcBq-9">
          <mxGeometry y="26" width="179.5" height="26" as="geometry" />
        </mxCell>
        <mxCell id="IDTEIIXvFM5C024ZQcBq-11" value="&lt;div&gt;&amp;nbsp;- profissao: Integer&lt;br&gt;&lt;/div&gt;" style="text;html=1;align=left;verticalAlign=middle;resizable=0;points=[];autosize=1;strokeColor=none;fillColor=none;imageAlign=left;" vertex="1" parent="IDTEIIXvFM5C024ZQcBq-9">
          <mxGeometry y="52" width="179.5" height="30" as="geometry" />
        </mxCell>
        <mxCell id="IDTEIIXvFM5C024ZQcBq-12" value="" style="line;html=1;strokeWidth=1;align=left;verticalAlign=middle;spacingTop=-1;spacingLeft=3;spacingRight=3;rotatable=0;labelPosition=right;points=[];portConstraint=eastwest;" vertex="1" parent="IDTEIIXvFM5C024ZQcBq-9">
          <mxGeometry y="82" width="179.5" height="68" as="geometry" />
        </mxCell>
        <mxCell id="IDTEIIXvFM5C024ZQcBq-13" value="+ demissao(Integer valor): void" style="text;html=1;align=center;verticalAlign=middle;resizable=0;points=[];autosize=1;strokeColor=none;fillColor=none;" vertex="1" parent="IDTEIIXvFM5C024ZQcBq-9">
          <mxGeometry y="150" width="179.5" height="30" as="geometry" />
        </mxCell>
        <mxCell id="IDTEIIXvFM5C024ZQcBq-14" value="+contratacao(Integer valor) :void" style="text;html=1;align=center;verticalAlign=middle;resizable=0;points=[];autosize=1;strokeColor=none;fillColor=none;" vertex="1" parent="IDTEIIXvFM5C024ZQcBq-9">
          <mxGeometry y="180" width="179.5" height="30" as="geometry" />
        </mxCell>
        <mxCell id="IDTEIIXvFM5C024ZQcBq-24" style="edgeStyle=orthogonalEdgeStyle;rounded=0;orthogonalLoop=1;jettySize=auto;html=1;endArrow=block;endFill=0;" edge="1" parent="WIyWlLk6GJQsqaUBKTNV-1" source="IDTEIIXvFM5C024ZQcBq-21">
          <mxGeometry relative="1" as="geometry">
            <mxPoint x="300" y="75" as="targetPoint" />
          </mxGeometry>
        </mxCell>
        <mxCell id="IDTEIIXvFM5C024ZQcBq-30" style="edgeStyle=orthogonalEdgeStyle;rounded=0;orthogonalLoop=1;jettySize=auto;html=1;endArrow=none;endFill=0;" edge="1" parent="WIyWlLk6GJQsqaUBKTNV-1" source="IDTEIIXvFM5C024ZQcBq-21" target="IDTEIIXvFM5C024ZQcBq-27">
          <mxGeometry relative="1" as="geometry">
            <Array as="points">
              <mxPoint x="550" y="180" />
              <mxPoint x="550" y="180" />
            </Array>
          </mxGeometry>
        </mxCell>
        <mxCell id="IDTEIIXvFM5C024ZQcBq-21" value="Paciente" style="swimlane;fontStyle=0;align=center;verticalAlign=top;childLayout=stackLayout;horizontal=1;startSize=26;horizontalStack=0;resizeParent=1;resizeLast=0;collapsible=1;marginBottom=0;rounded=0;shadow=0;strokeWidth=1;" vertex="1" parent="WIyWlLk6GJQsqaUBKTNV-1">
          <mxGeometry x="470" y="30" width="160" height="90" as="geometry">
            <mxRectangle x="130" y="380" width="160" height="26" as="alternateBounds" />
          </mxGeometry>
        </mxCell>
        <mxCell id="IDTEIIXvFM5C024ZQcBq-22" value="- cadastroSus: Integer" style="text;align=left;verticalAlign=top;spacingLeft=4;spacingRight=4;overflow=hidden;rotatable=0;points=[[0,0.5],[1,0.5]];portConstraint=eastwest;rounded=0;shadow=0;html=0;" vertex="1" parent="IDTEIIXvFM5C024ZQcBq-21">
          <mxGeometry y="26" width="160" height="26" as="geometry" />
        </mxCell>
        <mxCell id="IDTEIIXvFM5C024ZQcBq-23" value="" style="line;html=1;strokeWidth=1;align=left;verticalAlign=middle;spacingTop=-1;spacingLeft=3;spacingRight=3;rotatable=0;labelPosition=right;points=[];portConstraint=eastwest;" vertex="1" parent="IDTEIIXvFM5C024ZQcBq-21">
          <mxGeometry y="52" width="160" height="18" as="geometry" />
        </mxCell>
        <mxCell id="IDTEIIXvFM5C024ZQcBq-27" value="Exame" style="swimlane;fontStyle=0;align=center;verticalAlign=top;childLayout=stackLayout;horizontal=1;startSize=26;horizontalStack=0;resizeParent=1;resizeLast=0;collapsible=1;marginBottom=0;rounded=0;shadow=0;strokeWidth=1;" vertex="1" parent="WIyWlLk6GJQsqaUBKTNV-1">
          <mxGeometry x="470" y="200" width="160" height="110" as="geometry">
            <mxRectangle x="130" y="380" width="160" height="26" as="alternateBounds" />
          </mxGeometry>
        </mxCell>
        <mxCell id="IDTEIIXvFM5C024ZQcBq-28" value="- dataExame: LocalDate&#xa;- especialidade: String&#xa;- solicitante: Integer&#xa;" style="text;align=left;verticalAlign=top;spacingLeft=4;spacingRight=4;overflow=hidden;rotatable=0;points=[[0,0.5],[1,0.5]];portConstraint=eastwest;rounded=0;shadow=0;html=0;" vertex="1" parent="IDTEIIXvFM5C024ZQcBq-27">
          <mxGeometry y="26" width="160" height="44" as="geometry" />
        </mxCell>
        <mxCell id="IDTEIIXvFM5C024ZQcBq-29" value="" style="line;html=1;strokeWidth=1;align=left;verticalAlign=middle;spacingTop=-1;spacingLeft=3;spacingRight=3;rotatable=0;labelPosition=right;points=[];portConstraint=eastwest;" vertex="1" parent="IDTEIIXvFM5C024ZQcBq-27">
          <mxGeometry y="70" width="160" height="18" as="geometry" />
        </mxCell>
      </root>
    </mxGraphModel>
  </diagram>
</mxfile>
